# xmcd
#
# Track frame offsets:
#	150
#	20034
#	37303
#	47444
#	64975
#	80214
#	93121
#	103014
#	118894
#	131269
#	147295
#	162627
#	180371
#	198728
#
# Disc length: 2931 seconds
#
# Revision: 1
# Processed by: cddbd v1.5.2PL0 Copyright (c) Steve Scherf et al.
# Submitted via: audiograbber 1.83.01
#
DISCID=cd0b710e
DTITLE=Various Artist - Golden Pop Hits 2
DYEAR=2007
DGENRE=Oldies
TTITLE0=Tremeloes, The - Call Me Number One
TTITLE1=Melanie - Nickel Song
TTITLE2=Searchers, The - Don't Throw Your Love Away
TTITLE3=Dee, Dave, Dozy, Beaky, Mick and Tich - The Legend Of Xanadu
TTITLE4=Real Thing, The - You To Me Are Everything
TTITLE5=Bee Gees - Spicks And Specks
TTITLE6=Haley, Bill and his Comets - Rock Around The Clock
TTITLE7=Lee, Brenda - Coming On Strong
TTITLE8=Equals, The - Rub A Dub Dub
TTITLE9=Stewart, Rod - Can I Get A Witness
TTITLE10=Rubettes, The - Sugar Baby Love
TTITLE11=Sledge, Percy - When A Man Loves A Woman
TTITLE12=Hasselhoff, David - Any Kind Of Love At All
TTITLE13=Bassey, Shirley - Solitaire
EXTD=
EXTT0=
EXTT1=
EXTT2=
EXTT3=
EXTT4=
EXTT5=
EXTT6=
EXTT7=
EXTT8=
EXTT9=
EXTT10=
EXTT11=
EXTT12=
EXTT13=
PLAYORDER=
